<?xml version="1.0" encoding="utf-8"?>
<!-- Generator: Adobe Illustrator 19.0.0, SVG Export Plug-In . SVG Version: 6.00 Build 0)  -->
<svg version="1.1" xmlns="http://www.w3.org/2000/svg" xmlns:xlink="http://www.w3.org/1999/xlink" x="0px" y="0px"
	 viewBox="0 0 160 120" style="enable-background:new 0 0 160 120;" xml:space="preserve">
<style type="text/css">
	.st0{fill:#3A3A3A;}
	.st1{fill:#A8A8A8;}
	.st2{fill:none;}
	.st3{fill:#2EC866;}
</style>
<g id="图层_1">
</g>
<g id="图层_2">
	<g id="XMLID_8_">
		<polyline id="XMLID_2_" class="st0" points="10,33 10,58 30,58 30,33 10,33 		"/>
		<polyline id="XMLID_9_" class="st1" points="130,33 150,33 150,58 130,58 130,33 		"/>
		<rect id="XMLID_3_" x="40" y="33" class="st0" width="20" height="50"/>
		<rect id="XMLID_6_" x="100" y="33" class="st1" width="20" height="50"/>
		<rect id="XMLID_4_" x="70" y="33" class="st0" width="20" height="80"/>
	</g>
	<polygon id="XMLID_5_" class="st2" points="90,33 70,113 90,113 	"/>
	<polygon id="XMLID_7_" class="st1" points="90,33 70,113 90,113 	"/>
	<g id="XMLID_1_">
		<path id="XMLID_37_" class="st3" d="M34.5,26.3c-1.6,0-2.7-0.3-3.4-0.9c-0.7-0.6-1-1.5-1-2.8c0-0.7,0.1-1.5,0.3-2.4l1.9-10.8
			L22.5,25H22L17.5,9.2L14.7,25h-1.1l3.2-18.5h2.7l4.1,14.6l9.2-14.6h2.5l-2.4,13.7c-0.2,0.9-0.3,1.7-0.3,2.4c0,1,0.2,1.7,0.5,2.3
			c0.3,0.5,0.8,0.8,1.5,0.8L34.5,26.3z"/>
		<path id="XMLID_39_" class="st3" d="M39.5,19.4c0,0.2-0.1,0.4-0.1,0.6c0,0.2,0,0.4,0,0.6c0,1,0.3,1.9,0.8,2.6
			c0.5,0.7,1.3,1.1,2.3,1.1c0.9,0,1.7-0.2,2.4-0.6c0.7-0.4,1.3-0.9,1.9-1.7l0.5,0.4c-0.8,1.1-1.7,1.8-2.6,2.3
			c-0.9,0.4-1.9,0.7-3,0.7c-0.8,0-1.5-0.1-2.1-0.4c-0.6-0.3-1.1-0.6-1.5-1.1c-0.4-0.5-0.7-1-0.9-1.6c-0.2-0.6-0.3-1.3-0.3-2
			c0-1,0.2-2,0.5-3c0.3-1,0.8-1.9,1.4-2.8c0.6-0.8,1.4-1.5,2.3-2c0.9-0.5,1.9-0.8,3.1-0.8c1.7,0,2.9,0.3,3.6,0.9
			c0.7,0.6,1.1,1.4,1.1,2.3c0,0.8-0.2,1.4-0.5,2c-0.3,0.6-0.8,1.1-1.3,1.5c-0.6,0.4-1.2,0.7-1.9,0.9s-1.4,0.3-2.2,0.3H39.5z
			 M42.9,18.3c0.9,0,1.7-0.4,2.3-1c0.6-0.6,0.9-1.5,0.9-2.5c0-0.7-0.2-1.2-0.6-1.6c-0.4-0.4-0.9-0.6-1.6-0.6c-1,0-1.9,0.5-2.6,1.5
			c-0.7,1-1.3,2.4-1.6,4.1H42.9z"/>
		<path id="XMLID_42_" class="st3" d="M50.4,25c0.4-2.6,0.8-4.8,1.1-6.6c0.3-1.8,0.6-3.3,0.8-4.5c0.2-1.2,0.4-2.1,0.5-2.8
			c0.1-0.7,0.2-1.2,0.3-1.5c0.1-0.3,0.1-0.6,0.1-0.7c0-0.1,0-0.2,0-0.3c0-0.5-0.1-0.9-0.3-1.2s-0.6-0.4-1.3-0.4H51l0.1-0.6h2.5
			c0.7,0,1.3,0.1,1.6,0.3c0.3,0.2,0.5,0.7,0.5,1.4c0,0.1,0,0.2,0,0.3c0,0.1,0,0.4-0.1,0.7c-0.1,0.4-0.1,0.9-0.3,1.6
			c-0.1,0.7-0.3,1.6-0.5,2.9c-0.2,1.2-0.5,2.7-0.8,4.6c-0.3,1.8-0.7,4.1-1.2,6.7H50.4z"/>
		<path id="XMLID_44_" class="st3" d="M57.3,20c0-1,0.2-2,0.5-3c0.3-1,0.8-1.9,1.5-2.7c0.7-0.8,1.4-1.5,2.4-2c0.9-0.5,2-0.8,3.1-0.8
			c0.8,0,1.6,0.1,2.2,0.4c0.6,0.3,1.2,0.6,1.6,1.1c0.4,0.5,0.8,1,1,1.7c0.2,0.7,0.3,1.4,0.3,2.1c0,1-0.2,2-0.5,3
			c-0.3,1-0.8,1.9-1.5,2.7c-0.7,0.8-1.4,1.5-2.4,2c-0.9,0.5-2,0.8-3.1,0.8c-0.8,0-1.6-0.1-2.2-0.4s-1.2-0.6-1.6-1.1
			c-0.4-0.5-0.8-1-1-1.7C57.4,21.5,57.3,20.8,57.3,20z M62.6,24.2c0.8,0,1.5-0.3,2-0.8c0.6-0.5,1.1-1.2,1.4-1.9
			c0.4-0.8,0.7-1.6,0.9-2.4c0.2-0.9,0.3-1.6,0.3-2.3c0-1.2-0.2-2.1-0.7-2.9c-0.5-0.7-1.1-1.1-2-1.1c-0.8,0-1.5,0.3-2,0.8
			c-0.6,0.5-1.1,1.2-1.4,1.9c-0.4,0.8-0.7,1.6-0.9,2.4c-0.2,0.9-0.3,1.6-0.3,2.3c0,1.2,0.2,2.1,0.7,2.9
			C61.1,23.8,61.8,24.2,62.6,24.2z"/>
		<path id="XMLID_47_" class="st3" d="M81.2,25l-0.8-1.3h-0.1c-0.3,0.4-0.8,0.7-1.4,1c-0.6,0.3-1.5,0.5-2.6,0.5
			c-0.7,0-1.3-0.1-1.8-0.4s-0.9-0.6-1.3-1c-0.3-0.4-0.6-1-0.7-1.6c-0.2-0.6-0.2-1.3-0.2-2c0-0.9,0.1-1.9,0.4-2.9
			c0.3-1,0.7-2,1.2-2.9c0.6-0.9,1.2-1.6,2.1-2.2c0.8-0.6,1.8-0.9,3-0.9c0.8,0,1.4,0.1,2,0.3c0.5,0.2,1,0.4,1.4,0.6
			c0.1-0.7,0.2-1.3,0.3-1.8c0.1-0.4,0.1-0.8,0.2-1s0.1-0.4,0.1-0.6c0-0.1,0-0.2,0-0.3c0-0.5-0.1-0.9-0.3-1.2
			c-0.2-0.3-0.6-0.4-1.3-0.4h-0.6l0.1-0.6h2.5c0.7,0,1.3,0.1,1.6,0.3c0.3,0.2,0.5,0.7,0.5,1.4c0,0.1,0,0.2,0,0.3
			c0,0.1,0,0.4-0.1,0.7c-0.1,0.4-0.1,0.9-0.3,1.6c-0.1,0.7-0.3,1.6-0.5,2.9c-0.2,1.2-0.5,2.7-0.8,4.6c-0.3,1.8-0.7,4.1-1.2,6.7H81.2
			z M82.1,13.5c-0.4-0.2-0.8-0.4-1.2-0.6c-0.4-0.2-0.9-0.3-1.3-0.3c-0.9,0-1.6,0.3-2.2,0.8c-0.6,0.6-1.1,1.2-1.5,2s-0.6,1.7-0.8,2.6
			s-0.2,1.8-0.2,2.5c0,1.1,0.2,1.9,0.6,2.6c0.4,0.7,1,1,1.8,1c0.8,0,1.5-0.2,2-0.5c0.5-0.3,0.9-0.7,1.2-1.2L82.1,13.5z"/>
		<path id="XMLID_50_" class="st3" d="M91.7,25.3l-2.5-10.9c-0.2-0.7-0.5-1.2-1-1.6s-1-0.6-1.7-0.6l0.1-0.6h2.4c0.8,0,1.5,0.2,2,0.6
			c0.5,0.4,0.8,0.9,1,1.7l1.8,7.8l5.2-9.7h1.4l-8.1,15c-0.4,0.8-0.8,1.4-1.2,1.9s-0.8,0.9-1.2,1.2c-0.4,0.3-0.8,0.5-1.2,0.6
			s-0.9,0.2-1.4,0.2h-0.8l0.2-0.8c0.4,0,0.8,0,1.2-0.1s0.7-0.2,1.1-0.4c0.3-0.2,0.7-0.5,1-0.9c0.3-0.4,0.7-0.9,1-1.5L91.7,25.3z"/>
		<path id="XMLID_52_" class="st3" d="M111.5,25H109c0.4-2.6,0.8-4.8,1.1-6.6c0.3-1.8,0.6-3.3,0.8-4.5c0.2-1.2,0.4-2.1,0.5-2.8
			c0.1-0.7,0.2-1.2,0.3-1.5c0.1-0.3,0.1-0.6,0.1-0.7c0-0.1,0-0.2,0-0.3c0-0.5-0.1-0.9-0.3-1.2c-0.2-0.3-0.6-0.4-1.3-0.4h-0.6
			l0.1-0.6h7.3c0.5,0,1.2,0,1.9,0.1s1.4,0.3,2,0.6c0.6,0.3,1.2,0.7,1.6,1.3s0.7,1.4,0.7,2.3c0,1-0.2,1.9-0.6,2.7
			c-0.4,0.8-0.9,1.5-1.6,2.1c-0.7,0.6-1.4,1-2.3,1.3c-0.9,0.3-1.8,0.5-2.8,0.5h-3.1L111.5,25z M115.1,16.5c0.5,0,1.1-0.1,1.7-0.3
			c0.6-0.2,1.2-0.5,1.7-1c0.5-0.4,1-1,1.3-1.7c0.4-0.7,0.5-1.5,0.5-2.4c0-0.7-0.1-1.2-0.4-1.7c-0.3-0.4-0.6-0.8-0.9-1.1
			c-0.4-0.3-0.8-0.5-1.2-0.6c-0.4-0.1-0.8-0.2-1.1-0.2c-0.4,0-0.7,0-1.1,0.1s-0.7,0.1-1,0.2l-1.5,8.4c0.3,0.1,0.6,0.1,1,0.2
			C114.4,16.4,114.8,16.5,115.1,16.5z"/>
		<path id="XMLID_55_" class="st3" d="M123.9,25c0.3-1.7,0.6-3.2,0.8-4.4c0.2-1.2,0.4-2.2,0.5-3c0.1-0.8,0.2-1.4,0.3-1.9
			c0.1-0.5,0.1-0.8,0.2-1.1s0.1-0.4,0.1-0.5c0-0.1,0-0.2,0-0.2c0-0.5-0.1-0.9-0.3-1.1s-0.6-0.4-1.2-0.4h-0.3l0.1-0.6h2.2
			c0.7,0,1.2,0.1,1.6,0.3c0.3,0.2,0.5,0.5,0.6,1h0.1c0.4-0.4,0.8-0.7,1.5-1c0.6-0.3,1.3-0.5,2.2-0.5c0.3,0,0.6,0,0.9,0.1
			s0.5,0.2,0.7,0.3c0.2,0.1,0.4,0.3,0.5,0.5c0.1,0.2,0.2,0.4,0.3,0.7l-1.3,0.8c-0.1-0.3-0.4-0.5-0.8-0.6c-0.4-0.1-0.8-0.2-1.3-0.2
			c-0.6,0-1.1,0.1-1.6,0.4c-0.5,0.3-0.9,0.6-1.3,1L126.4,25H123.9z"/>
		<path id="XMLID_57_" class="st3" d="M134.9,20c0-1,0.2-2,0.5-3c0.3-1,0.8-1.9,1.5-2.7c0.7-0.8,1.4-1.5,2.4-2
			c0.9-0.5,2-0.8,3.1-0.8c0.8,0,1.6,0.1,2.2,0.4c0.6,0.3,1.2,0.6,1.6,1.1c0.4,0.5,0.8,1,1,1.7c0.2,0.7,0.3,1.4,0.3,2.1
			c0,1-0.2,2-0.5,3c-0.3,1-0.8,1.9-1.5,2.7c-0.7,0.8-1.4,1.5-2.4,2c-0.9,0.5-2,0.8-3.1,0.8c-0.8,0-1.6-0.1-2.2-0.4s-1.2-0.6-1.6-1.1
			c-0.4-0.5-0.8-1-1-1.7C135,21.5,134.9,20.8,134.9,20z M140.2,24.2c0.8,0,1.5-0.3,2-0.8c0.6-0.5,1.1-1.2,1.4-1.9
			c0.4-0.8,0.7-1.6,0.9-2.4c0.2-0.9,0.3-1.6,0.3-2.3c0-1.2-0.2-2.1-0.7-2.9c-0.5-0.7-1.1-1.1-2-1.1c-0.8,0-1.5,0.3-2,0.8
			c-0.6,0.5-1.1,1.2-1.4,1.9c-0.4,0.8-0.7,1.6-0.9,2.4c-0.2,0.9-0.3,1.6-0.3,2.3c0,1.2,0.2,2.1,0.7,2.9
			C138.7,23.8,139.3,24.2,140.2,24.2z"/>
	</g>
	<rect id="_x3C_切片_x3E_" class="st2" width="160" height="120"/>
	<g id="XMLID_36_">
	</g>
	<g id="XMLID_60_">
	</g>
	<g id="XMLID_61_">
	</g>
	<g id="XMLID_62_">
	</g>
	<g id="XMLID_63_">
	</g>
	<g id="XMLID_64_">
	</g>
	<g id="XMLID_65_">
	</g>
	<g id="XMLID_66_">
	</g>
	<g id="XMLID_67_">
	</g>
	<g id="XMLID_68_">
	</g>
	<g id="XMLID_69_">
	</g>
	<g id="XMLID_70_">
	</g>
	<g id="XMLID_71_">
	</g>
	<g id="XMLID_72_">
	</g>
	<g id="XMLID_73_">
	</g>
</g>
</svg>
